<svg width="275" height="422" viewBox="0 0 275 422" fill="none" xmlns="http://www.w3.org/2000/svg">
<path d="M268.974 132.569C268.974 151.372 209.883 166.616 136.99 166.616C64.097 166.616 5.00574 151.372 5.00574 132.569C5.00574 113.765 64.097 98.522 136.99 98.522C209.883 98.522 268.974 113.765 268.974 132.569Z" fill="#9D8A59"/>
<ellipse cx="137.121" cy="380.038" rx="106.772" ry="41.2985" fill="#CBBA90"/>
<path d="M0.802368 34.5408H274.111L244.228 385.074H30.3493L0.802368 34.5408Z" fill="#CBBA90"/>
<path d="M274.018 35.8926C274.018 55.6248 212.856 71.6208 137.41 71.6208C61.9637 71.6208 0.802368 55.6248 0.802368 35.8926C0.802368 16.1605 61.9637 0.16449 137.41 0.16449C212.856 0.16449 274.018 16.1605 274.018 35.8926Z" fill="url(#paint0_linear_59_141279)"/>
<mask id="mask0_59_141279" style="mask-type:alpha" maskUnits="userSpaceOnUse" x="0" y="0" width="275" height="72">
<path d="M274.018 35.8926C274.018 55.6248 212.856 71.6208 137.41 71.6208C61.9637 71.6208 0.802368 55.6248 0.802368 35.8926C0.802368 16.1605 61.9637 0.16449 137.41 0.16449C212.856 0.16449 274.018 16.1605 274.018 35.8926Z" fill="url(#paint1_linear_59_141279)"/>
</mask>
<g mask="url(#mask0_59_141279)">
<path d="M274.018 64.4752C274.018 84.2073 212.856 100.203 137.41 100.203C61.9637 100.203 0.802368 84.2073 0.802368 64.4752C0.802368 44.7431 61.9637 28.747 137.41 28.747C212.856 28.747 274.018 44.7431 274.018 64.4752Z" fill="#634F1D"/>
</g>
<path d="M5.00573 132.989C5.00573 132.989 1.81818 161.992 134.468 161.992C264.645 161.992 268.974 132.989 268.974 132.989L255.103 314.572C255.103 314.572 251.32 342.314 134.468 342.314C17.6156 342.314 19.297 311.63 19.297 311.63L5.00573 132.989Z" fill="#AE9963"/>
<defs>
<linearGradient id="paint0_linear_59_141279" x1="137.41" y1="0.16449" x2="137.41" y2="71.6208" gradientUnits="userSpaceOnUse">
<stop stop-color="#B9A981"/>
<stop offset="1" stop-color="#9F916C"/>
</linearGradient>
<linearGradient id="paint1_linear_59_141279" x1="137.41" y1="0.16449" x2="137.41" y2="71.6208" gradientUnits="userSpaceOnUse">
<stop stop-color="#B9A981"/>
<stop offset="1" stop-color="#9F916C"/>
</linearGradient>
</defs>
</svg>
