<svg width="2857" height="335" viewBox="0 0 2857 335" fill="none" xmlns="http://www.w3.org/2000/svg">
<g filter="url(#filter0_d_408_28119)">
<circle cx="2348.19" cy="141.713" r="28" transform="rotate(-3.72356 2348.19 141.713)" fill="url(#paint0_radial_408_28119)"/>
</g>
<path d="M2330.3 97.782C2330.12 95.0265 2332.21 92.6472 2334.96 92.4679L2354.92 91.169C2357.68 90.9897 2360.05 93.0782 2360.23 95.8338L2361.6 116.789L2331.66 118.738L2330.3 97.782Z" fill="#181818"/>
<circle cx="2344.88" cy="90.8206" r="6" transform="rotate(-3.72356 2344.88 90.8206)" fill="#181818"/>
<g filter="url(#filter1_d_408_28119)">
<circle cx="2530.86" cy="206.533" r="28" transform="rotate(12.0969 2530.86 206.533)" fill="url(#paint1_radial_408_28119)"/>
</g>
<path d="M2525.62 159.389C2526.2 156.689 2528.86 154.969 2531.56 155.548L2551.12 159.739C2553.82 160.318 2555.54 162.976 2554.96 165.676L2550.56 186.21L2521.22 179.923L2525.62 159.389Z" fill="#181818"/>
<circle cx="2541.55" cy="156.666" r="6" transform="rotate(12.0969 2541.55 156.666)" fill="#181818"/>
<g filter="url(#filter2_d_408_28119)">
<circle cx="2728.88" cy="173.885" r="28" transform="rotate(-22.2968 2728.88 173.885)" fill="url(#paint2_radial_408_28119)"/>
</g>
<path d="M2697.93 137.941C2696.88 135.386 2698.1 132.465 2700.65 131.417L2719.16 123.829C2721.71 122.782 2724.63 124.003 2725.68 126.558L2733.65 145.988L2705.89 157.37L2697.93 137.941Z" fill="#181818"/>
<circle cx="2709.53" cy="126.698" r="6" transform="rotate(-22.2968 2709.53 126.698)" fill="#181818"/>
<g filter="url(#filter3_d_408_28119)">
<circle cx="2167.49" cy="184.236" r="28" transform="rotate(-8.61414 2167.49 184.236)" fill="url(#paint3_radial_408_28119)"/>
</g>
<path d="M2145.92 141.99C2145.51 139.26 2147.39 136.711 2150.12 136.298L2169.89 133.302C2172.62 132.889 2175.17 134.767 2175.58 137.497L2178.73 158.26L2149.07 162.753L2145.92 141.99Z" fill="#181818"/>
<circle cx="2159.85" cy="133.811" r="6" transform="rotate(-8.61414 2159.85 133.811)" fill="#181818"/>
<g filter="url(#filter4_d_408_28119)">
<circle cx="1967.16" cy="157.535" r="28" transform="rotate(14.9687 1967.16 157.535)" fill="url(#paint4_radial_408_28119)"/>
</g>
<path d="M1964.29 110.188C1965 107.52 1967.74 105.936 1970.41 106.649L1989.73 111.815C1992.4 112.528 1993.98 115.269 1993.27 117.937L1987.85 138.224L1958.86 130.476L1964.29 110.188Z" fill="#181818"/>
<circle cx="1980.33" cy="108.266" r="6" transform="rotate(14.9687 1980.33 108.266)" fill="#181818"/>
<g filter="url(#filter5_d_408_28119)">
<circle cx="1782.9" cy="154.914" r="28" transform="rotate(-8.58832 1782.9 154.914)" fill="url(#paint5_radial_408_28119)"/>
</g>
<path d="M1761.35 112.659C1760.94 109.929 1762.82 107.381 1765.55 106.969L1785.32 103.982C1788.06 103.569 1790.6 105.449 1791.02 108.179L1794.15 128.944L1764.49 133.424L1761.35 112.659Z" fill="#181818"/>
<circle cx="1775.29" cy="104.486" r="6" transform="rotate(-8.58832 1775.29 104.486)" fill="#181818"/>
<g filter="url(#filter6_d_408_28119)">
<circle cx="1602" cy="181.615" r="28" transform="rotate(-3.49873 1602 181.615)" fill="url(#paint6_radial_408_28119)"/>
</g>
<path d="M1584.28 137.615C1584.11 134.858 1586.21 132.487 1588.97 132.319L1608.93 131.098C1611.69 130.93 1614.06 133.028 1614.23 135.784L1615.51 156.745L1585.56 158.576L1584.28 137.615Z" fill="#181818"/>
<circle cx="1598.89" cy="130.71" r="6" transform="rotate(-3.49873 1598.89 130.71)" fill="#181818"/>
<g filter="url(#filter7_d_408_28119)">
<circle cx="1400.84" cy="146.363" r="28" transform="rotate(5.27636 1400.84 146.363)" fill="url(#paint7_radial_408_28119)"/>
</g>
<path d="M1390.04 100.174C1390.29 97.4244 1392.73 95.4012 1395.48 95.6551L1415.39 97.4943C1418.14 97.7482 1420.16 100.183 1419.91 102.933L1417.98 123.844L1388.11 121.085L1390.04 100.174Z" fill="#181818"/>
<circle cx="1405.53" cy="95.5789" r="6" transform="rotate(5.27636 1405.53 95.5789)" fill="#181818"/>
<g filter="url(#filter8_d_408_28119)">
<circle cx="1215.07" cy="156.128" r="28" transform="rotate(-7.23412 1215.07 156.128)" fill="url(#paint8_radial_408_28119)"/>
</g>
<path d="M1194.53 113.375C1194.18 110.635 1196.12 108.133 1198.86 107.785L1218.7 105.267C1221.44 104.919 1223.94 106.858 1224.29 109.597L1226.93 130.43L1197.17 134.208L1194.53 113.375Z" fill="#181818"/>
<circle cx="1208.65" cy="105.534" r="6" transform="rotate(-7.23412 1208.65 105.534)" fill="#181818"/>
<g filter="url(#filter9_d_408_28119)">
<circle cx="1035.3" cy="163.276" r="28" transform="rotate(11.6002 1035.3 163.276)" fill="url(#paint9_radial_408_28119)"/>
</g>
<path d="M1029.66 116.179C1030.21 113.473 1032.86 111.731 1035.56 112.286L1055.15 116.308C1057.86 116.863 1059.6 119.506 1059.05 122.211L1054.82 142.782L1025.44 136.75L1029.66 116.179Z" fill="#181818"/>
<circle cx="1045.56" cy="113.317" r="6" transform="rotate(11.6002 1045.56 113.317)" fill="#181818"/>
<g filter="url(#filter10_d_408_28119)">
<circle cx="845.46" cy="141.335" r="28" transform="rotate(-2.86062 845.46 141.335)" fill="url(#paint10_radial_408_28119)"/>
</g>
<path d="M828.233 97.1396C828.096 94.3817 830.22 92.0342 832.978 91.8963L852.953 90.8982C855.711 90.7604 858.058 92.8845 858.196 95.6424L859.244 116.616L829.281 118.113L828.233 97.1396Z" fill="#181818"/>
<circle cx="842.915" cy="90.3985" r="6" transform="rotate(-2.86062 842.915 90.3985)" fill="#181818"/>
<g filter="url(#filter11_d_408_28119)">
<circle cx="640.084" cy="161.136" r="28" transform="rotate(-2.41734 640.084 161.136)" fill="url(#paint11_radial_408_28119)"/>
</g>
<path d="M623.199 116.809C623.083 114.05 625.225 111.719 627.984 111.603L647.966 110.759C650.725 110.643 653.056 112.785 653.173 115.544L654.058 136.525L624.085 137.79L623.199 116.809Z" fill="#181818"/>
<circle cx="637.933" cy="110.182" r="6" transform="rotate(-2.41734 637.933 110.182)" fill="#181818"/>
<g filter="url(#filter12_d_408_28119)">
<circle cx="446.98" cy="168.433" r="28" transform="rotate(4.65852 446.98 168.433)" fill="url(#paint12_radial_408_28119)"/>
</g>
<path d="M435.684 122.363C435.909 119.611 438.322 117.562 441.074 117.786L461.008 119.41C463.76 119.635 465.809 122.048 465.585 124.8L463.88 145.731L433.979 143.294L435.684 122.363Z" fill="#181818"/>
<circle cx="451.122" cy="117.602" r="6" transform="rotate(4.65852 451.122 117.602)" fill="#181818"/>
<g filter="url(#filter13_d_408_28119)">
<circle cx="273.893" cy="128.873" r="28" transform="rotate(5.82384 273.893 128.873)" fill="url(#paint13_radial_408_28119)"/>
</g>
<path d="M263.537 82.5831C263.817 79.8359 266.271 77.836 269.019 78.1162L288.915 80.1456C291.663 80.4258 293.662 82.88 293.382 85.6272L291.251 106.519L261.406 103.475L263.537 82.5831Z" fill="#181818"/>
<circle cx="279.068" cy="78.1361" r="6" transform="rotate(5.82384 279.068 78.1361)" fill="#181818"/>
<g filter="url(#filter14_d_408_28119)">
<circle cx="128.139" cy="155.614" r="28" transform="rotate(-8.57071 128.139 155.614)" fill="url(#paint14_radial_408_28119)"/>
</g>
<path d="M106.6 113.352C106.188 110.622 108.068 108.074 110.799 107.663L130.576 104.682C133.306 104.271 135.853 106.151 136.265 108.881L139.394 129.647L109.73 134.118L106.6 113.352Z" fill="#181818"/>
<circle cx="120.538" cy="105.184" r="6" transform="rotate(-8.57071 120.538 105.184)" fill="#181818"/>
<path d="M2711 124.5C2498.5 250.5 2449.5 23.4999 2233.5 111C2017.5 198.5 2031.5 45.5 1744.5 111C1449.87 178.242 1505.87 55.196 1238.5 103C994.5 146.626 965.5 70.9998 720 101C523.687 124.989 447.5 125.5 395 103C342.667 77.8332 191 58.4997 118 101" stroke="#181818" stroke-width="3"/>
<defs>
<filter id="filter0_d_408_28119" x="2220.19" y="13.7119" width="256.002" height="256.002" filterUnits="userSpaceOnUse" color-interpolation-filters="sRGB">
<feFlood flood-opacity="0" result="BackgroundImageFix"/>
<feColorMatrix in="SourceAlpha" type="matrix" values="0 0 0 0 0 0 0 0 0 0 0 0 0 0 0 0 0 0 127 0" result="hardAlpha"/>
<feOffset/>
<feGaussianBlur stdDeviation="50"/>
<feComposite in2="hardAlpha" operator="out"/>
<feColorMatrix type="matrix" values="0 0 0 0 1 0 0 0 0 0.91134 0 0 0 0 0.6 0 0 0 1 0"/>
<feBlend mode="normal" in2="BackgroundImageFix" result="effect1_dropShadow_408_28119"/>
<feBlend mode="normal" in="SourceGraphic" in2="effect1_dropShadow_408_28119" result="shape"/>
</filter>
<filter id="filter1_d_408_28119" x="2402.85" y="78.5276" width="256.012" height="256.012" filterUnits="userSpaceOnUse" color-interpolation-filters="sRGB">
<feFlood flood-opacity="0" result="BackgroundImageFix"/>
<feColorMatrix in="SourceAlpha" type="matrix" values="0 0 0 0 0 0 0 0 0 0 0 0 0 0 0 0 0 0 127 0" result="hardAlpha"/>
<feOffset/>
<feGaussianBlur stdDeviation="50"/>
<feComposite in2="hardAlpha" operator="out"/>
<feColorMatrix type="matrix" values="0 0 0 0 1 0 0 0 0 0.91134 0 0 0 0 0.6 0 0 0 1 0"/>
<feBlend mode="normal" in2="BackgroundImageFix" result="effect1_dropShadow_408_28119"/>
<feBlend mode="normal" in="SourceGraphic" in2="effect1_dropShadow_408_28119" result="shape"/>
</filter>
<filter id="filter2_d_408_28119" x="2600.87" y="45.8776" width="256.015" height="256.015" filterUnits="userSpaceOnUse" color-interpolation-filters="sRGB">
<feFlood flood-opacity="0" result="BackgroundImageFix"/>
<feColorMatrix in="SourceAlpha" type="matrix" values="0 0 0 0 0 0 0 0 0 0 0 0 0 0 0 0 0 0 127 0" result="hardAlpha"/>
<feOffset/>
<feGaussianBlur stdDeviation="50"/>
<feComposite in2="hardAlpha" operator="out"/>
<feColorMatrix type="matrix" values="0 0 0 0 1 0 0 0 0 0.91134 0 0 0 0 0.6 0 0 0 1 0"/>
<feBlend mode="normal" in2="BackgroundImageFix" result="effect1_dropShadow_408_28119"/>
<feBlend mode="normal" in="SourceGraphic" in2="effect1_dropShadow_408_28119" result="shape"/>
</filter>
<filter id="filter3_d_408_28119" x="2039.49" y="56.2321" width="256.008" height="256.008" filterUnits="userSpaceOnUse" color-interpolation-filters="sRGB">
<feFlood flood-opacity="0" result="BackgroundImageFix"/>
<feColorMatrix in="SourceAlpha" type="matrix" values="0 0 0 0 0 0 0 0 0 0 0 0 0 0 0 0 0 0 127 0" result="hardAlpha"/>
<feOffset/>
<feGaussianBlur stdDeviation="50"/>
<feComposite in2="hardAlpha" operator="out"/>
<feColorMatrix type="matrix" values="0 0 0 0 1 0 0 0 0 0.91134 0 0 0 0 0.6 0 0 0 1 0"/>
<feBlend mode="normal" in2="BackgroundImageFix" result="effect1_dropShadow_408_28119"/>
<feBlend mode="normal" in="SourceGraphic" in2="effect1_dropShadow_408_28119" result="shape"/>
</filter>
<filter id="filter4_d_408_28119" x="1839.15" y="29.5286" width="256.014" height="256.014" filterUnits="userSpaceOnUse" color-interpolation-filters="sRGB">
<feFlood flood-opacity="0" result="BackgroundImageFix"/>
<feColorMatrix in="SourceAlpha" type="matrix" values="0 0 0 0 0 0 0 0 0 0 0 0 0 0 0 0 0 0 127 0" result="hardAlpha"/>
<feOffset/>
<feGaussianBlur stdDeviation="50"/>
<feComposite in2="hardAlpha" operator="out"/>
<feColorMatrix type="matrix" values="0 0 0 0 1 0 0 0 0 0.91134 0 0 0 0 0.6 0 0 0 1 0"/>
<feBlend mode="normal" in2="BackgroundImageFix" result="effect1_dropShadow_408_28119"/>
<feBlend mode="normal" in="SourceGraphic" in2="effect1_dropShadow_408_28119" result="shape"/>
</filter>
<filter id="filter5_d_408_28119" x="1654.9" y="26.9106" width="256.008" height="256.008" filterUnits="userSpaceOnUse" color-interpolation-filters="sRGB">
<feFlood flood-opacity="0" result="BackgroundImageFix"/>
<feColorMatrix in="SourceAlpha" type="matrix" values="0 0 0 0 0 0 0 0 0 0 0 0 0 0 0 0 0 0 127 0" result="hardAlpha"/>
<feOffset/>
<feGaussianBlur stdDeviation="50"/>
<feComposite in2="hardAlpha" operator="out"/>
<feColorMatrix type="matrix" values="0 0 0 0 1 0 0 0 0 0.91134 0 0 0 0 0.6 0 0 0 1 0"/>
<feBlend mode="normal" in2="BackgroundImageFix" result="effect1_dropShadow_408_28119"/>
<feBlend mode="normal" in="SourceGraphic" in2="effect1_dropShadow_408_28119" result="shape"/>
</filter>
<filter id="filter6_d_408_28119" x="1474" y="53.6145" width="256.002" height="256.002" filterUnits="userSpaceOnUse" color-interpolation-filters="sRGB">
<feFlood flood-opacity="0" result="BackgroundImageFix"/>
<feColorMatrix in="SourceAlpha" type="matrix" values="0 0 0 0 0 0 0 0 0 0 0 0 0 0 0 0 0 0 127 0" result="hardAlpha"/>
<feOffset/>
<feGaussianBlur stdDeviation="50"/>
<feComposite in2="hardAlpha" operator="out"/>
<feColorMatrix type="matrix" values="0 0 0 0 1 0 0 0 0 0.91134 0 0 0 0 0.6 0 0 0 1 0"/>
<feBlend mode="normal" in2="BackgroundImageFix" result="effect1_dropShadow_408_28119"/>
<feBlend mode="normal" in="SourceGraphic" in2="effect1_dropShadow_408_28119" result="shape"/>
</filter>
<filter id="filter7_d_408_28119" x="1272.83" y="18.361" width="256.004" height="256.004" filterUnits="userSpaceOnUse" color-interpolation-filters="sRGB">
<feFlood flood-opacity="0" result="BackgroundImageFix"/>
<feColorMatrix in="SourceAlpha" type="matrix" values="0 0 0 0 0 0 0 0 0 0 0 0 0 0 0 0 0 0 127 0" result="hardAlpha"/>
<feOffset/>
<feGaussianBlur stdDeviation="50"/>
<feComposite in2="hardAlpha" operator="out"/>
<feColorMatrix type="matrix" values="0 0 0 0 1 0 0 0 0 0.91134 0 0 0 0 0.6 0 0 0 1 0"/>
<feBlend mode="normal" in2="BackgroundImageFix" result="effect1_dropShadow_408_28119"/>
<feBlend mode="normal" in="SourceGraphic" in2="effect1_dropShadow_408_28119" result="shape"/>
</filter>
<filter id="filter8_d_408_28119" x="1087.07" y="28.1246" width="256.006" height="256.006" filterUnits="userSpaceOnUse" color-interpolation-filters="sRGB">
<feFlood flood-opacity="0" result="BackgroundImageFix"/>
<feColorMatrix in="SourceAlpha" type="matrix" values="0 0 0 0 0 0 0 0 0 0 0 0 0 0 0 0 0 0 127 0" result="hardAlpha"/>
<feOffset/>
<feGaussianBlur stdDeviation="50"/>
<feComposite in2="hardAlpha" operator="out"/>
<feColorMatrix type="matrix" values="0 0 0 0 1 0 0 0 0 0.91134 0 0 0 0 0.6 0 0 0 1 0"/>
<feBlend mode="normal" in2="BackgroundImageFix" result="effect1_dropShadow_408_28119"/>
<feBlend mode="normal" in="SourceGraphic" in2="effect1_dropShadow_408_28119" result="shape"/>
</filter>
<filter id="filter9_d_408_28119" x="907.298" y="35.2701" width="256.011" height="256.011" filterUnits="userSpaceOnUse" color-interpolation-filters="sRGB">
<feFlood flood-opacity="0" result="BackgroundImageFix"/>
<feColorMatrix in="SourceAlpha" type="matrix" values="0 0 0 0 0 0 0 0 0 0 0 0 0 0 0 0 0 0 127 0" result="hardAlpha"/>
<feOffset/>
<feGaussianBlur stdDeviation="50"/>
<feComposite in2="hardAlpha" operator="out"/>
<feColorMatrix type="matrix" values="0 0 0 0 1 0 0 0 0 0.91134 0 0 0 0 0.6 0 0 0 1 0"/>
<feBlend mode="normal" in2="BackgroundImageFix" result="effect1_dropShadow_408_28119"/>
<feBlend mode="normal" in="SourceGraphic" in2="effect1_dropShadow_408_28119" result="shape"/>
</filter>
<filter id="filter10_d_408_28119" x="717.46" y="13.3344" width="256.001" height="256.001" filterUnits="userSpaceOnUse" color-interpolation-filters="sRGB">
<feFlood flood-opacity="0" result="BackgroundImageFix"/>
<feColorMatrix in="SourceAlpha" type="matrix" values="0 0 0 0 0 0 0 0 0 0 0 0 0 0 0 0 0 0 127 0" result="hardAlpha"/>
<feOffset/>
<feGaussianBlur stdDeviation="50"/>
<feComposite in2="hardAlpha" operator="out"/>
<feColorMatrix type="matrix" values="0 0 0 0 1 0 0 0 0 0.91134 0 0 0 0 0.6 0 0 0 1 0"/>
<feBlend mode="normal" in2="BackgroundImageFix" result="effect1_dropShadow_408_28119"/>
<feBlend mode="normal" in="SourceGraphic" in2="effect1_dropShadow_408_28119" result="shape"/>
</filter>
<filter id="filter11_d_408_28119" x="512.083" y="33.1359" width="256.001" height="256.001" filterUnits="userSpaceOnUse" color-interpolation-filters="sRGB">
<feFlood flood-opacity="0" result="BackgroundImageFix"/>
<feColorMatrix in="SourceAlpha" type="matrix" values="0 0 0 0 0 0 0 0 0 0 0 0 0 0 0 0 0 0 127 0" result="hardAlpha"/>
<feOffset/>
<feGaussianBlur stdDeviation="50"/>
<feComposite in2="hardAlpha" operator="out"/>
<feColorMatrix type="matrix" values="0 0 0 0 1 0 0 0 0 0.91134 0 0 0 0 0.6 0 0 0 1 0"/>
<feBlend mode="normal" in2="BackgroundImageFix" result="effect1_dropShadow_408_28119"/>
<feBlend mode="normal" in="SourceGraphic" in2="effect1_dropShadow_408_28119" result="shape"/>
</filter>
<filter id="filter12_d_408_28119" x="318.978" y="40.4316" width="256.003" height="256.003" filterUnits="userSpaceOnUse" color-interpolation-filters="sRGB">
<feFlood flood-opacity="0" result="BackgroundImageFix"/>
<feColorMatrix in="SourceAlpha" type="matrix" values="0 0 0 0 0 0 0 0 0 0 0 0 0 0 0 0 0 0 127 0" result="hardAlpha"/>
<feOffset/>
<feGaussianBlur stdDeviation="50"/>
<feComposite in2="hardAlpha" operator="out"/>
<feColorMatrix type="matrix" values="0 0 0 0 1 0 0 0 0 0.91134 0 0 0 0 0.6 0 0 0 1 0"/>
<feBlend mode="normal" in2="BackgroundImageFix" result="effect1_dropShadow_408_28119"/>
<feBlend mode="normal" in="SourceGraphic" in2="effect1_dropShadow_408_28119" result="shape"/>
</filter>
<filter id="filter13_d_408_28119" x="145.891" y="0.870728" width="256.004" height="256.004" filterUnits="userSpaceOnUse" color-interpolation-filters="sRGB">
<feFlood flood-opacity="0" result="BackgroundImageFix"/>
<feColorMatrix in="SourceAlpha" type="matrix" values="0 0 0 0 0 0 0 0 0 0 0 0 0 0 0 0 0 0 127 0" result="hardAlpha"/>
<feOffset/>
<feGaussianBlur stdDeviation="50"/>
<feComposite in2="hardAlpha" operator="out"/>
<feColorMatrix type="matrix" values="0 0 0 0 1 0 0 0 0 0.91134 0 0 0 0 0.6 0 0 0 1 0"/>
<feBlend mode="normal" in2="BackgroundImageFix" result="effect1_dropShadow_408_28119"/>
<feBlend mode="normal" in="SourceGraphic" in2="effect1_dropShadow_408_28119" result="shape"/>
</filter>
<filter id="filter14_d_408_28119" x="0.134766" y="27.6104" width="256.008" height="256.008" filterUnits="userSpaceOnUse" color-interpolation-filters="sRGB">
<feFlood flood-opacity="0" result="BackgroundImageFix"/>
<feColorMatrix in="SourceAlpha" type="matrix" values="0 0 0 0 0 0 0 0 0 0 0 0 0 0 0 0 0 0 127 0" result="hardAlpha"/>
<feOffset/>
<feGaussianBlur stdDeviation="50"/>
<feComposite in2="hardAlpha" operator="out"/>
<feColorMatrix type="matrix" values="0 0 0 0 1 0 0 0 0 0.91134 0 0 0 0 0.6 0 0 0 1 0"/>
<feBlend mode="normal" in2="BackgroundImageFix" result="effect1_dropShadow_408_28119"/>
<feBlend mode="normal" in="SourceGraphic" in2="effect1_dropShadow_408_28119" result="shape"/>
</filter>
<radialGradient id="paint0_radial_408_28119" cx="0" cy="0" r="1" gradientUnits="userSpaceOnUse" gradientTransform="translate(2348.19 141.713) rotate(90) scale(44.5)">
<stop offset="0.145833" stop-color="#FFF7DA"/>
<stop offset="1" stop-color="#FFC806"/>
</radialGradient>
<radialGradient id="paint1_radial_408_28119" cx="0" cy="0" r="1" gradientUnits="userSpaceOnUse" gradientTransform="translate(2530.86 206.533) rotate(90) scale(44.5)">
<stop offset="0.145833" stop-color="#FFF7DA"/>
<stop offset="1" stop-color="#FFC806"/>
</radialGradient>
<radialGradient id="paint2_radial_408_28119" cx="0" cy="0" r="1" gradientUnits="userSpaceOnUse" gradientTransform="translate(2728.88 173.885) rotate(90) scale(44.5)">
<stop offset="0.145833" stop-color="#FFF7DA"/>
<stop offset="1" stop-color="#FFC806"/>
</radialGradient>
<radialGradient id="paint3_radial_408_28119" cx="0" cy="0" r="1" gradientUnits="userSpaceOnUse" gradientTransform="translate(2167.49 184.236) rotate(90) scale(44.5)">
<stop offset="0.145833" stop-color="#FFF7DA"/>
<stop offset="1" stop-color="#FFC806"/>
</radialGradient>
<radialGradient id="paint4_radial_408_28119" cx="0" cy="0" r="1" gradientUnits="userSpaceOnUse" gradientTransform="translate(1967.16 157.535) rotate(90) scale(44.5)">
<stop offset="0.145833" stop-color="#FFF7DA"/>
<stop offset="1" stop-color="#FFC806"/>
</radialGradient>
<radialGradient id="paint5_radial_408_28119" cx="0" cy="0" r="1" gradientUnits="userSpaceOnUse" gradientTransform="translate(1782.9 154.914) rotate(90) scale(44.5)">
<stop offset="0.145833" stop-color="#FFF7DA"/>
<stop offset="1" stop-color="#FFC806"/>
</radialGradient>
<radialGradient id="paint6_radial_408_28119" cx="0" cy="0" r="1" gradientUnits="userSpaceOnUse" gradientTransform="translate(1602 181.615) rotate(90) scale(44.5)">
<stop offset="0.145833" stop-color="#FFF7DA"/>
<stop offset="1" stop-color="#FFC806"/>
</radialGradient>
<radialGradient id="paint7_radial_408_28119" cx="0" cy="0" r="1" gradientUnits="userSpaceOnUse" gradientTransform="translate(1400.84 146.363) rotate(90) scale(44.5)">
<stop offset="0.145833" stop-color="#FFF7DA"/>
<stop offset="1" stop-color="#FFC806"/>
</radialGradient>
<radialGradient id="paint8_radial_408_28119" cx="0" cy="0" r="1" gradientUnits="userSpaceOnUse" gradientTransform="translate(1215.07 156.128) rotate(90) scale(44.5)">
<stop offset="0.145833" stop-color="#FFF7DA"/>
<stop offset="1" stop-color="#FFC806"/>
</radialGradient>
<radialGradient id="paint9_radial_408_28119" cx="0" cy="0" r="1" gradientUnits="userSpaceOnUse" gradientTransform="translate(1035.3 163.276) rotate(90) scale(44.5)">
<stop offset="0.145833" stop-color="#FFF7DA"/>
<stop offset="1" stop-color="#FFC806"/>
</radialGradient>
<radialGradient id="paint10_radial_408_28119" cx="0" cy="0" r="1" gradientUnits="userSpaceOnUse" gradientTransform="translate(845.46 141.335) rotate(90) scale(44.5)">
<stop offset="0.145833" stop-color="#FFF7DA"/>
<stop offset="1" stop-color="#FFC806"/>
</radialGradient>
<radialGradient id="paint11_radial_408_28119" cx="0" cy="0" r="1" gradientUnits="userSpaceOnUse" gradientTransform="translate(640.084 161.136) rotate(90) scale(44.5)">
<stop offset="0.145833" stop-color="#FFF7DA"/>
<stop offset="1" stop-color="#FFC806"/>
</radialGradient>
<radialGradient id="paint12_radial_408_28119" cx="0" cy="0" r="1" gradientUnits="userSpaceOnUse" gradientTransform="translate(446.98 168.433) rotate(90) scale(44.5)">
<stop offset="0.145833" stop-color="#FFF7DA"/>
<stop offset="1" stop-color="#FFC806"/>
</radialGradient>
<radialGradient id="paint13_radial_408_28119" cx="0" cy="0" r="1" gradientUnits="userSpaceOnUse" gradientTransform="translate(273.893 128.873) rotate(90) scale(44.5)">
<stop offset="0.145833" stop-color="#FFF7DA"/>
<stop offset="1" stop-color="#FFC806"/>
</radialGradient>
<radialGradient id="paint14_radial_408_28119" cx="0" cy="0" r="1" gradientUnits="userSpaceOnUse" gradientTransform="translate(128.139 155.614) rotate(90) scale(44.5)">
<stop offset="0.145833" stop-color="#FFF7DA"/>
<stop offset="1" stop-color="#FFC806"/>
</radialGradient>
</defs>
</svg>
