<svg width="26" height="28" viewBox="0 0 26 28" fill="none" xmlns="http://www.w3.org/2000/svg">
<path d="M6.97179 3.41831C7.62934 3.06152 8.45191 3.3047 8.80904 3.96161C9.16627 4.61843 8.92276 5.44021 8.2653 5.79709C5.0574 7.53799 3.06462 10.8826 3.06462 14.5257C3.06462 19.9988 7.52168 24.4516 13.0001 24.4516C18.4785 24.4516 22.9356 19.9988 22.9356 14.5257C22.9356 10.8984 20.9556 7.56082 17.7684 5.81522C17.1122 5.45591 16.872 4.63314 17.2316 3.97767C17.5914 3.32221 18.4149 3.08209 19.071 3.44141C23.1261 5.66236 25.6453 9.90964 25.6453 14.5257C25.6453 21.4915 19.9726 27.1586 13.0001 27.1586C6.02756 27.1586 0.35494 21.4915 0.35494 14.5257C0.35494 9.88943 2.89039 5.63331 6.97179 3.41831Z" fill="black"/>
<path d="M13.0001 10.9164C12.2518 10.9164 11.6452 10.3103 11.6452 9.56283V0.539318C11.6452 -0.20819 12.2518 -0.814209 13.0001 -0.814209C13.7483 -0.814209 14.3549 -0.20819 14.3549 0.539318V9.56283C14.3549 10.3103 13.7483 10.9164 13.0001 10.9164Z" fill="black"/>
</svg>
