<svg width="3013" height="380" viewBox="0 0 3013 380" fill="none" xmlns="http://www.w3.org/2000/svg">
<g filter="url(#filter0_d_408_28119)">
<circle cx="2521.12" cy="251.998" r="28" transform="rotate(-1.99014 2521.12 251.998)" fill="url(#paint0_radial_408_28119)"/>
</g>
<path d="M2504.57 207.546C2504.47 204.786 2506.63 202.471 2509.39 202.375L2529.38 201.681C2532.14 201.585 2534.45 203.744 2534.55 206.504L2535.28 227.491L2505.3 228.533L2504.57 207.546Z" fill="#181818"/>
<circle cx="2519.35" cy="201.029" r="6" transform="rotate(-1.99014 2519.35 201.029)" fill="#181818"/>
<g filter="url(#filter1_d_408_28119)">
<circle cx="2706.64" cy="226.672" r="28" transform="rotate(-11.8087 2706.64 226.672)" fill="url(#paint1_radial_408_28119)"/>
</g>
<path d="M2682.75 185.694C2682.18 182.991 2683.92 180.342 2686.62 179.776L2706.2 175.684C2708.9 175.118 2711.55 176.852 2712.11 179.555L2716.41 200.11L2687.05 206.249L2682.75 185.694Z" fill="#181818"/>
<circle cx="2696.2" cy="176.751" r="6" transform="rotate(-11.8087 2696.2 176.751)" fill="#181818"/>
<g filter="url(#filter2_d_408_28119)">
<circle cx="2884.88" cy="174.885" r="28" transform="rotate(-22.2968 2884.88 174.885)" fill="url(#paint2_radial_408_28119)"/>
</g>
<path d="M2853.93 138.941C2852.88 136.386 2854.1 133.465 2856.65 132.417L2875.16 124.829C2877.71 123.782 2880.63 125.003 2881.68 127.558L2889.65 146.988L2861.89 158.37L2853.93 138.941Z" fill="#181818"/>
<circle cx="2865.53" cy="127.698" r="6" transform="rotate(-22.2968 2865.53 127.698)" fill="#181818"/>
<g filter="url(#filter3_d_408_28119)">
<circle cx="2305.05" cy="236.902" r="28" transform="rotate(8.94431 2305.05 236.902)" fill="url(#paint3_radial_408_28119)"/>
</g>
<path d="M2297.23 190.117C2297.66 187.389 2300.22 185.526 2302.95 185.955L2322.71 189.064C2325.43 189.494 2327.3 192.053 2326.87 194.781L2323.6 215.526L2293.97 210.861L2297.23 190.117Z" fill="#181818"/>
<circle cx="2312.98" cy="186.522" r="6" transform="rotate(8.94431 2312.98 186.522)" fill="#181818"/>
<g filter="url(#filter4_d_408_28119)">
<circle cx="2131.01" cy="193.854" r="28" transform="rotate(13.0982 2131.01 193.854)" fill="url(#paint4_radial_408_28119)"/>
</g>
<path d="M2126.6 146.625C2127.23 143.935 2129.91 142.262 2132.6 142.888L2152.08 147.421C2154.77 148.046 2156.45 150.734 2155.82 153.424L2151.06 173.877L2121.84 167.079L2126.6 146.625Z" fill="#181818"/>
<circle cx="2142.57" cy="144.18" r="6" transform="rotate(13.0982 2142.57 144.18)" fill="#181818"/>
<g filter="url(#filter5_d_408_28119)">
<circle cx="1954.64" cy="187.944" r="28" transform="rotate(-4.26543 1954.64 187.944)" fill="url(#paint5_radial_408_28119)"/>
</g>
<path d="M1936.34 144.184C1936.13 141.431 1938.2 139.032 1940.95 138.826L1960.89 137.339C1963.65 137.133 1966.05 139.199 1966.25 141.953L1967.81 162.895L1937.9 165.126L1936.34 144.184Z" fill="#181818"/>
<circle cx="1950.85" cy="137.085" r="6" transform="rotate(-4.26543 1950.85 137.085)" fill="#181818"/>
<g filter="url(#filter6_d_408_28119)">
<circle cx="1782.65" cy="204.927" r="28" transform="rotate(-6.70332 1782.65 204.927)" fill="url(#paint6_radial_408_28119)"/>
</g>
<path d="M1762.49 161.985C1762.17 159.243 1764.13 156.758 1766.88 156.436L1786.74 154.101C1789.48 153.779 1791.97 155.741 1792.29 158.483L1794.74 179.34L1764.95 182.842L1762.49 161.985Z" fill="#181818"/>
<circle cx="1776.69" cy="154.275" r="6" transform="rotate(-6.70332 1776.69 154.275)" fill="#181818"/>
<g filter="url(#filter7_d_408_28119)">
<circle cx="1584.23" cy="228.149" r="28" transform="rotate(0.30743 1584.23 228.149)" fill="url(#paint7_radial_408_28119)"/>
</g>
<path d="M1569.47 183.07C1569.49 180.308 1571.74 178.082 1574.5 178.097L1594.5 178.204C1597.26 178.219 1599.49 180.469 1599.47 183.231L1599.36 204.23L1569.36 204.069L1569.47 183.07Z" fill="#181818"/>
<circle cx="1584.5" cy="177.15" r="6" transform="rotate(0.30743 1584.5 177.15)" fill="#181818"/>
<g filter="url(#filter8_d_408_28119)">
<circle cx="1381.99" cy="215.453" r="28" transform="rotate(5.49976 1381.99 215.453)" fill="url(#paint8_radial_408_28119)"/>
</g>
<path d="M1371.37 169.223C1371.64 166.474 1374.08 164.461 1376.83 164.725L1396.74 166.642C1399.49 166.907 1401.5 169.349 1401.24 172.098L1399.22 193.002L1369.36 190.126L1371.37 169.223Z" fill="#181818"/>
<circle cx="1386.88" cy="164.688" r="6" transform="rotate(5.49976 1386.88 164.688)" fill="#181818"/>
<g filter="url(#filter9_d_408_28119)">
<circle cx="1194.32" cy="193.71" r="28" transform="rotate(7.73986 1194.32 193.71)" fill="url(#paint9_radial_408_28119)"/>
</g>
<path d="M1185.52 147.1C1185.89 144.363 1188.41 142.447 1191.15 142.819L1210.97 145.512C1213.7 145.884 1215.62 148.404 1215.25 151.14L1212.42 171.949L1182.69 167.908L1185.52 147.1Z" fill="#181818"/>
<circle cx="1201.19" cy="143.174" r="6" transform="rotate(7.73986 1201.19 143.174)" fill="#181818"/>
<g filter="url(#filter10_d_408_28119)">
<circle cx="1006.61" cy="183.848" r="28" transform="rotate(-2.86062 1006.61 183.848)" fill="url(#paint10_radial_408_28119)"/>
</g>
<path d="M989.388 139.653C989.25 136.895 991.374 134.548 994.132 134.41L1014.11 133.412C1016.87 133.274 1019.21 135.398 1019.35 138.156L1020.4 159.13L990.436 160.627L989.388 139.653Z" fill="#181818"/>
<circle cx="1004.07" cy="132.912" r="6" transform="rotate(-2.86062 1004.07 132.912)" fill="#181818"/>
<g filter="url(#filter11_d_408_28119)">
<circle cx="809.433" cy="198.337" r="28" transform="rotate(-2.41734 809.433 198.337)" fill="url(#paint11_radial_408_28119)"/>
</g>
<path d="M792.549 154.009C792.432 151.25 794.574 148.919 797.333 148.803L817.316 147.959C820.075 147.843 822.406 149.985 822.522 152.744L823.408 173.725L793.435 174.991L792.549 154.009Z" fill="#181818"/>
<circle cx="807.282" cy="147.382" r="6" transform="rotate(-2.41734 807.282 147.382)" fill="#181818"/>
<g filter="url(#filter12_d_408_28119)">
<circle cx="608.191" cy="187.189" r="28" transform="rotate(10.8666 608.191 187.189)" fill="url(#paint12_radial_408_28119)"/>
</g>
<path d="M601.944 140.168C602.464 137.456 605.085 135.679 607.797 136.2L627.438 139.97C630.15 140.491 631.926 143.111 631.406 145.823L627.447 166.447L597.985 160.791L601.944 140.168Z" fill="#181818"/>
<circle cx="617.806" cy="137.103" r="6" transform="rotate(10.8666 617.806 137.103)" fill="#181818"/>
<g filter="url(#filter13_d_408_28119)">
<circle cx="434.765" cy="128.35" r="28" transform="rotate(12.2791 434.765 128.35)" fill="url(#paint13_radial_408_28119)"/>
</g>
<path d="M429.678 81.1897C430.266 78.4914 432.929 76.7802 435.627 77.3674L455.17 81.6209C457.868 82.2082 459.579 84.8717 458.992 87.5699L454.526 108.089L425.212 101.709L429.678 81.1897Z" fill="#181818"/>
<circle cx="445.611" cy="78.5171" r="6" transform="rotate(12.2791 445.611 78.5171)" fill="#181818"/>
<g filter="url(#filter14_d_408_28119)">
<circle cx="266.869" cy="131.972" r="28" transform="rotate(-8.57071 266.869 131.972)" fill="url(#paint14_radial_408_28119)"/>
</g>
<path d="M245.33 89.7098C244.919 86.9792 246.799 84.432 249.529 84.0205L269.306 81.0399C272.036 80.6283 274.584 82.5083 274.995 85.2389L278.125 106.004L248.46 110.475L245.33 89.7098Z" fill="#181818"/>
<circle cx="259.269" cy="81.5414" r="6" transform="rotate(-8.57071 259.269 81.5414)" fill="#181818"/>
<path d="M2888.5 118C2804.5 154 2586.8 220.3 2388 197.5C2139.5 169 2201 115 1900 142C1599 169 1676.5 191 1406 166.5C1135.5 142 1137.5 117.5 891.5 142C694.7 161.6 586.5 134.167 557 118C504.667 92.8333 378.7 48.7 293.5 73.5C208.3 98.3 62.6667 83.8333 0.5 73.5" stroke="#181818" stroke-width="3"/>
<defs>
<filter id="filter0_d_408_28119" x="2393.12" y="123.997" width="256.001" height="256.001" filterUnits="userSpaceOnUse" color-interpolation-filters="sRGB">
<feFlood flood-opacity="0" result="BackgroundImageFix"/>
<feColorMatrix in="SourceAlpha" type="matrix" values="0 0 0 0 0 0 0 0 0 0 0 0 0 0 0 0 0 0 127 0" result="hardAlpha"/>
<feOffset/>
<feGaussianBlur stdDeviation="50"/>
<feComposite in2="hardAlpha" operator="out"/>
<feColorMatrix type="matrix" values="0 0 0 0 1 0 0 0 0 0.91134 0 0 0 0 0.6 0 0 0 1 0"/>
<feBlend mode="normal" in2="BackgroundImageFix" result="effect1_dropShadow_408_28119"/>
<feBlend mode="normal" in="SourceGraphic" in2="effect1_dropShadow_408_28119" result="shape"/>
</filter>
<filter id="filter1_d_408_28119" x="2578.63" y="98.6663" width="256.011" height="256.011" filterUnits="userSpaceOnUse" color-interpolation-filters="sRGB">
<feFlood flood-opacity="0" result="BackgroundImageFix"/>
<feColorMatrix in="SourceAlpha" type="matrix" values="0 0 0 0 0 0 0 0 0 0 0 0 0 0 0 0 0 0 127 0" result="hardAlpha"/>
<feOffset/>
<feGaussianBlur stdDeviation="50"/>
<feComposite in2="hardAlpha" operator="out"/>
<feColorMatrix type="matrix" values="0 0 0 0 1 0 0 0 0 0.91134 0 0 0 0 0.6 0 0 0 1 0"/>
<feBlend mode="normal" in2="BackgroundImageFix" result="effect1_dropShadow_408_28119"/>
<feBlend mode="normal" in="SourceGraphic" in2="effect1_dropShadow_408_28119" result="shape"/>
</filter>
<filter id="filter2_d_408_28119" x="2756.87" y="46.8776" width="256.015" height="256.015" filterUnits="userSpaceOnUse" color-interpolation-filters="sRGB">
<feFlood flood-opacity="0" result="BackgroundImageFix"/>
<feColorMatrix in="SourceAlpha" type="matrix" values="0 0 0 0 0 0 0 0 0 0 0 0 0 0 0 0 0 0 127 0" result="hardAlpha"/>
<feOffset/>
<feGaussianBlur stdDeviation="50"/>
<feComposite in2="hardAlpha" operator="out"/>
<feColorMatrix type="matrix" values="0 0 0 0 1 0 0 0 0 0.91134 0 0 0 0 0.6 0 0 0 1 0"/>
<feBlend mode="normal" in2="BackgroundImageFix" result="effect1_dropShadow_408_28119"/>
<feBlend mode="normal" in="SourceGraphic" in2="effect1_dropShadow_408_28119" result="shape"/>
</filter>
<filter id="filter3_d_408_28119" x="2177.05" y="108.898" width="256.008" height="256.008" filterUnits="userSpaceOnUse" color-interpolation-filters="sRGB">
<feFlood flood-opacity="0" result="BackgroundImageFix"/>
<feColorMatrix in="SourceAlpha" type="matrix" values="0 0 0 0 0 0 0 0 0 0 0 0 0 0 0 0 0 0 127 0" result="hardAlpha"/>
<feOffset/>
<feGaussianBlur stdDeviation="50"/>
<feComposite in2="hardAlpha" operator="out"/>
<feColorMatrix type="matrix" values="0 0 0 0 1 0 0 0 0 0.91134 0 0 0 0 0.6 0 0 0 1 0"/>
<feBlend mode="normal" in2="BackgroundImageFix" result="effect1_dropShadow_408_28119"/>
<feBlend mode="normal" in="SourceGraphic" in2="effect1_dropShadow_408_28119" result="shape"/>
</filter>
<filter id="filter4_d_408_28119" x="2003.01" y="65.8473" width="256.012" height="256.012" filterUnits="userSpaceOnUse" color-interpolation-filters="sRGB">
<feFlood flood-opacity="0" result="BackgroundImageFix"/>
<feColorMatrix in="SourceAlpha" type="matrix" values="0 0 0 0 0 0 0 0 0 0 0 0 0 0 0 0 0 0 127 0" result="hardAlpha"/>
<feOffset/>
<feGaussianBlur stdDeviation="50"/>
<feComposite in2="hardAlpha" operator="out"/>
<feColorMatrix type="matrix" values="0 0 0 0 1 0 0 0 0 0.91134 0 0 0 0 0.6 0 0 0 1 0"/>
<feBlend mode="normal" in2="BackgroundImageFix" result="effect1_dropShadow_408_28119"/>
<feBlend mode="normal" in="SourceGraphic" in2="effect1_dropShadow_408_28119" result="shape"/>
</filter>
<filter id="filter5_d_408_28119" x="1826.64" y="59.9429" width="256.003" height="256.003" filterUnits="userSpaceOnUse" color-interpolation-filters="sRGB">
<feFlood flood-opacity="0" result="BackgroundImageFix"/>
<feColorMatrix in="SourceAlpha" type="matrix" values="0 0 0 0 0 0 0 0 0 0 0 0 0 0 0 0 0 0 127 0" result="hardAlpha"/>
<feOffset/>
<feGaussianBlur stdDeviation="50"/>
<feComposite in2="hardAlpha" operator="out"/>
<feColorMatrix type="matrix" values="0 0 0 0 1 0 0 0 0 0.91134 0 0 0 0 0.6 0 0 0 1 0"/>
<feBlend mode="normal" in2="BackgroundImageFix" result="effect1_dropShadow_408_28119"/>
<feBlend mode="normal" in="SourceGraphic" in2="effect1_dropShadow_408_28119" result="shape"/>
</filter>
<filter id="filter6_d_408_28119" x="1654.64" y="76.9238" width="256.005" height="256.005" filterUnits="userSpaceOnUse" color-interpolation-filters="sRGB">
<feFlood flood-opacity="0" result="BackgroundImageFix"/>
<feColorMatrix in="SourceAlpha" type="matrix" values="0 0 0 0 0 0 0 0 0 0 0 0 0 0 0 0 0 0 127 0" result="hardAlpha"/>
<feOffset/>
<feGaussianBlur stdDeviation="50"/>
<feComposite in2="hardAlpha" operator="out"/>
<feColorMatrix type="matrix" values="0 0 0 0 1 0 0 0 0 0.91134 0 0 0 0 0.6 0 0 0 1 0"/>
<feBlend mode="normal" in2="BackgroundImageFix" result="effect1_dropShadow_408_28119"/>
<feBlend mode="normal" in="SourceGraphic" in2="effect1_dropShadow_408_28119" result="shape"/>
</filter>
<filter id="filter7_d_408_28119" x="1456.23" y="100.149" width="256" height="256" filterUnits="userSpaceOnUse" color-interpolation-filters="sRGB">
<feFlood flood-opacity="0" result="BackgroundImageFix"/>
<feColorMatrix in="SourceAlpha" type="matrix" values="0 0 0 0 0 0 0 0 0 0 0 0 0 0 0 0 0 0 127 0" result="hardAlpha"/>
<feOffset/>
<feGaussianBlur stdDeviation="50"/>
<feComposite in2="hardAlpha" operator="out"/>
<feColorMatrix type="matrix" values="0 0 0 0 1 0 0 0 0 0.91134 0 0 0 0 0.6 0 0 0 1 0"/>
<feBlend mode="normal" in2="BackgroundImageFix" result="effect1_dropShadow_408_28119"/>
<feBlend mode="normal" in="SourceGraphic" in2="effect1_dropShadow_408_28119" result="shape"/>
</filter>
<filter id="filter8_d_408_28119" x="1253.99" y="87.4514" width="256.004" height="256.004" filterUnits="userSpaceOnUse" color-interpolation-filters="sRGB">
<feFlood flood-opacity="0" result="BackgroundImageFix"/>
<feColorMatrix in="SourceAlpha" type="matrix" values="0 0 0 0 0 0 0 0 0 0 0 0 0 0 0 0 0 0 127 0" result="hardAlpha"/>
<feOffset/>
<feGaussianBlur stdDeviation="50"/>
<feComposite in2="hardAlpha" operator="out"/>
<feColorMatrix type="matrix" values="0 0 0 0 1 0 0 0 0 0.91134 0 0 0 0 0.6 0 0 0 1 0"/>
<feBlend mode="normal" in2="BackgroundImageFix" result="effect1_dropShadow_408_28119"/>
<feBlend mode="normal" in="SourceGraphic" in2="effect1_dropShadow_408_28119" result="shape"/>
</filter>
<filter id="filter9_d_408_28119" x="1066.32" y="65.7064" width="256.007" height="256.007" filterUnits="userSpaceOnUse" color-interpolation-filters="sRGB">
<feFlood flood-opacity="0" result="BackgroundImageFix"/>
<feColorMatrix in="SourceAlpha" type="matrix" values="0 0 0 0 0 0 0 0 0 0 0 0 0 0 0 0 0 0 127 0" result="hardAlpha"/>
<feOffset/>
<feGaussianBlur stdDeviation="50"/>
<feComposite in2="hardAlpha" operator="out"/>
<feColorMatrix type="matrix" values="0 0 0 0 1 0 0 0 0 0.91134 0 0 0 0 0.6 0 0 0 1 0"/>
<feBlend mode="normal" in2="BackgroundImageFix" result="effect1_dropShadow_408_28119"/>
<feBlend mode="normal" in="SourceGraphic" in2="effect1_dropShadow_408_28119" result="shape"/>
</filter>
<filter id="filter10_d_408_28119" x="878.614" y="55.8478" width="256.001" height="256.001" filterUnits="userSpaceOnUse" color-interpolation-filters="sRGB">
<feFlood flood-opacity="0" result="BackgroundImageFix"/>
<feColorMatrix in="SourceAlpha" type="matrix" values="0 0 0 0 0 0 0 0 0 0 0 0 0 0 0 0 0 0 127 0" result="hardAlpha"/>
<feOffset/>
<feGaussianBlur stdDeviation="50"/>
<feComposite in2="hardAlpha" operator="out"/>
<feColorMatrix type="matrix" values="0 0 0 0 1 0 0 0 0 0.91134 0 0 0 0 0.6 0 0 0 1 0"/>
<feBlend mode="normal" in2="BackgroundImageFix" result="effect1_dropShadow_408_28119"/>
<feBlend mode="normal" in="SourceGraphic" in2="effect1_dropShadow_408_28119" result="shape"/>
</filter>
<filter id="filter11_d_408_28119" x="681.433" y="70.3361" width="256.001" height="256.001" filterUnits="userSpaceOnUse" color-interpolation-filters="sRGB">
<feFlood flood-opacity="0" result="BackgroundImageFix"/>
<feColorMatrix in="SourceAlpha" type="matrix" values="0 0 0 0 0 0 0 0 0 0 0 0 0 0 0 0 0 0 127 0" result="hardAlpha"/>
<feOffset/>
<feGaussianBlur stdDeviation="50"/>
<feComposite in2="hardAlpha" operator="out"/>
<feColorMatrix type="matrix" values="0 0 0 0 1 0 0 0 0 0.91134 0 0 0 0 0.6 0 0 0 1 0"/>
<feBlend mode="normal" in2="BackgroundImageFix" result="effect1_dropShadow_408_28119"/>
<feBlend mode="normal" in="SourceGraphic" in2="effect1_dropShadow_408_28119" result="shape"/>
</filter>
<filter id="filter12_d_408_28119" x="480.186" y="59.1833" width="256.01" height="256.01" filterUnits="userSpaceOnUse" color-interpolation-filters="sRGB">
<feFlood flood-opacity="0" result="BackgroundImageFix"/>
<feColorMatrix in="SourceAlpha" type="matrix" values="0 0 0 0 0 0 0 0 0 0 0 0 0 0 0 0 0 0 127 0" result="hardAlpha"/>
<feOffset/>
<feGaussianBlur stdDeviation="50"/>
<feComposite in2="hardAlpha" operator="out"/>
<feColorMatrix type="matrix" values="0 0 0 0 1 0 0 0 0 0.91134 0 0 0 0 0.6 0 0 0 1 0"/>
<feBlend mode="normal" in2="BackgroundImageFix" result="effect1_dropShadow_408_28119"/>
<feBlend mode="normal" in="SourceGraphic" in2="effect1_dropShadow_408_28119" result="shape"/>
</filter>
<filter id="filter13_d_408_28119" x="306.759" y="0.344482" width="256.012" height="256.012" filterUnits="userSpaceOnUse" color-interpolation-filters="sRGB">
<feFlood flood-opacity="0" result="BackgroundImageFix"/>
<feColorMatrix in="SourceAlpha" type="matrix" values="0 0 0 0 0 0 0 0 0 0 0 0 0 0 0 0 0 0 127 0" result="hardAlpha"/>
<feOffset/>
<feGaussianBlur stdDeviation="50"/>
<feComposite in2="hardAlpha" operator="out"/>
<feColorMatrix type="matrix" values="0 0 0 0 1 0 0 0 0 0.91134 0 0 0 0 0.6 0 0 0 1 0"/>
<feBlend mode="normal" in2="BackgroundImageFix" result="effect1_dropShadow_408_28119"/>
<feBlend mode="normal" in="SourceGraphic" in2="effect1_dropShadow_408_28119" result="shape"/>
</filter>
<filter id="filter14_d_408_28119" x="138.865" y="3.9679" width="256.008" height="256.008" filterUnits="userSpaceOnUse" color-interpolation-filters="sRGB">
<feFlood flood-opacity="0" result="BackgroundImageFix"/>
<feColorMatrix in="SourceAlpha" type="matrix" values="0 0 0 0 0 0 0 0 0 0 0 0 0 0 0 0 0 0 127 0" result="hardAlpha"/>
<feOffset/>
<feGaussianBlur stdDeviation="50"/>
<feComposite in2="hardAlpha" operator="out"/>
<feColorMatrix type="matrix" values="0 0 0 0 1 0 0 0 0 0.91134 0 0 0 0 0.6 0 0 0 1 0"/>
<feBlend mode="normal" in2="BackgroundImageFix" result="effect1_dropShadow_408_28119"/>
<feBlend mode="normal" in="SourceGraphic" in2="effect1_dropShadow_408_28119" result="shape"/>
</filter>
<radialGradient id="paint0_radial_408_28119" cx="0" cy="0" r="1" gradientUnits="userSpaceOnUse" gradientTransform="translate(2521.12 251.998) rotate(90) scale(44.5)">
<stop offset="0.145833" stop-color="#FFF7DA"/>
<stop offset="1" stop-color="#FFC806"/>
</radialGradient>
<radialGradient id="paint1_radial_408_28119" cx="0" cy="0" r="1" gradientUnits="userSpaceOnUse" gradientTransform="translate(2706.64 226.672) rotate(90) scale(44.5)">
<stop offset="0.145833" stop-color="#FFF7DA"/>
<stop offset="1" stop-color="#FFC806"/>
</radialGradient>
<radialGradient id="paint2_radial_408_28119" cx="0" cy="0" r="1" gradientUnits="userSpaceOnUse" gradientTransform="translate(2884.88 174.885) rotate(90) scale(44.5)">
<stop offset="0.145833" stop-color="#FFF7DA"/>
<stop offset="1" stop-color="#FFC806"/>
</radialGradient>
<radialGradient id="paint3_radial_408_28119" cx="0" cy="0" r="1" gradientUnits="userSpaceOnUse" gradientTransform="translate(2305.05 236.902) rotate(90) scale(44.5)">
<stop offset="0.145833" stop-color="#FFF7DA"/>
<stop offset="1" stop-color="#FFC806"/>
</radialGradient>
<radialGradient id="paint4_radial_408_28119" cx="0" cy="0" r="1" gradientUnits="userSpaceOnUse" gradientTransform="translate(2131.01 193.853) rotate(90) scale(44.5)">
<stop offset="0.145833" stop-color="#FFF7DA"/>
<stop offset="1" stop-color="#FFC806"/>
</radialGradient>
<radialGradient id="paint5_radial_408_28119" cx="0" cy="0" r="1" gradientUnits="userSpaceOnUse" gradientTransform="translate(1954.64 187.944) rotate(90) scale(44.5)">
<stop offset="0.145833" stop-color="#FFF7DA"/>
<stop offset="1" stop-color="#FFC806"/>
</radialGradient>
<radialGradient id="paint6_radial_408_28119" cx="0" cy="0" r="1" gradientUnits="userSpaceOnUse" gradientTransform="translate(1782.64 204.927) rotate(90) scale(44.5)">
<stop offset="0.145833" stop-color="#FFF7DA"/>
<stop offset="1" stop-color="#FFC806"/>
</radialGradient>
<radialGradient id="paint7_radial_408_28119" cx="0" cy="0" r="1" gradientUnits="userSpaceOnUse" gradientTransform="translate(1584.23 228.149) rotate(90) scale(44.5)">
<stop offset="0.145833" stop-color="#FFF7DA"/>
<stop offset="1" stop-color="#FFC806"/>
</radialGradient>
<radialGradient id="paint8_radial_408_28119" cx="0" cy="0" r="1" gradientUnits="userSpaceOnUse" gradientTransform="translate(1381.99 215.453) rotate(90) scale(44.5)">
<stop offset="0.145833" stop-color="#FFF7DA"/>
<stop offset="1" stop-color="#FFC806"/>
</radialGradient>
<radialGradient id="paint9_radial_408_28119" cx="0" cy="0" r="1" gradientUnits="userSpaceOnUse" gradientTransform="translate(1194.32 193.71) rotate(90) scale(44.5)">
<stop offset="0.145833" stop-color="#FFF7DA"/>
<stop offset="1" stop-color="#FFC806"/>
</radialGradient>
<radialGradient id="paint10_radial_408_28119" cx="0" cy="0" r="1" gradientUnits="userSpaceOnUse" gradientTransform="translate(1006.61 183.848) rotate(90) scale(44.5)">
<stop offset="0.145833" stop-color="#FFF7DA"/>
<stop offset="1" stop-color="#FFC806"/>
</radialGradient>
<radialGradient id="paint11_radial_408_28119" cx="0" cy="0" r="1" gradientUnits="userSpaceOnUse" gradientTransform="translate(809.433 198.337) rotate(90) scale(44.5)">
<stop offset="0.145833" stop-color="#FFF7DA"/>
<stop offset="1" stop-color="#FFC806"/>
</radialGradient>
<radialGradient id="paint12_radial_408_28119" cx="0" cy="0" r="1" gradientUnits="userSpaceOnUse" gradientTransform="translate(608.191 187.189) rotate(90) scale(44.5)">
<stop offset="0.145833" stop-color="#FFF7DA"/>
<stop offset="1" stop-color="#FFC806"/>
</radialGradient>
<radialGradient id="paint13_radial_408_28119" cx="0" cy="0" r="1" gradientUnits="userSpaceOnUse" gradientTransform="translate(434.765 128.35) rotate(90) scale(44.5)">
<stop offset="0.145833" stop-color="#FFF7DA"/>
<stop offset="1" stop-color="#FFC806"/>
</radialGradient>
<radialGradient id="paint14_radial_408_28119" cx="0" cy="0" r="1" gradientUnits="userSpaceOnUse" gradientTransform="translate(266.869 131.972) rotate(90) scale(44.5)">
<stop offset="0.145833" stop-color="#FFF7DA"/>
<stop offset="1" stop-color="#FFC806"/>
</radialGradient>
</defs>
</svg>
